<?xml version="1.0" encoding="utf-8"?>
<!-- Generator: Adobe Illustrator 19.0.0, SVG Export Plug-In . SVG Version: 6.00 Build 0)  -->
<svg version="1.1" id="Layer_1" xmlns="http://www.w3.org/2000/svg" xmlns:xlink="http://www.w3.org/1999/xlink" x="0px" y="0px"
	 viewBox="-25 -28 200 200" style="enable-background:new -25 -28 200 200;" xml:space="preserve">
<style type="text/css">
	.st0{fill:none;stroke:#151515;stroke-width:4.2194;stroke-miterlimit:10;}
	.st1{fill:#151515;}
	.st2{fill:#FFFFFF;}
</style>
<g id="XMLID_4_">
	<g id="XMLID_15_">
		<g id="XMLID_17_">
			<path class="st0" d="M75,170c-54,0-98-44-98-98s44-98,98-98s98,44,98,98S129,170,75,170z"/>
		</g>
		<circle id="XMLID_16_" class="st1" cx="75" cy="72" r="85.9"/>
	</g>
	<g>
		<path class="st2" d="M92.5,115c14.4,0,26.1-11.7,26.2-26.1l0.2-21.1l-0.2-1.1l-0.7-1.4l-1.2-0.9c-1.5-1.2-9.2,0.1-11.3-1.8
			c-1.5-1.3-1.7-3.8-2.1-7.1c-0.8-6.4-1.3-6.7-2.3-8.9C97.4,39,87.5,33.2,80.8,32.4H62.5c-14.4,0-26.2,11.8-26.2,26.1v30.4
			c0,14.3,11.8,26.1,26.2,26.1H92.5z M62.8,53.7h14.5c2.8,0,5,2.2,5,5c0,2.7-2.2,5-5,5H62.8c-2.8,0-5-2.3-5-5
			C57.8,56,60,53.7,62.8,53.7L62.8,53.7z M57.8,88.6c0-2.7,2.2-5,5-5h29.5c2.8,0,5,2.2,5,5c0,2.7-2.2,5-5,5H62.8
			C60,93.5,57.8,91.3,57.8,88.6L57.8,88.6z M57.8,88.6"/>
	</g>
</g>
</svg>
