<?xml version="1.0" encoding="utf-8"?>
<!-- Generator: Adobe Illustrator 19.0.0, SVG Export Plug-In . SVG Version: 6.00 Build 0)  -->
<svg version="1.1" id="Layer_1" xmlns="http://www.w3.org/2000/svg" xmlns:xlink="http://www.w3.org/1999/xlink" x="0px" y="0px"
	 viewBox="0 0 200 200" style="enable-background:new 0 0 200 200;" xml:space="preserve">
<style type="text/css">
	.st0{fill:none;stroke:#151515;stroke-width:4.2335;stroke-miterlimit:10;}
	.st1{fill:#151515;}
	.st2{fill:#FFFFFF;}
</style>
<g id="XMLID_5_">
	<g id="XMLID_2_">
		<g>
			<path class="st0" d="M100,199.3c-54,0-98-44.3-98-98.7C2,46.3,46,2,100,2c54,0,98,44.3,98,98.7C198,155.1,154,199.3,100,199.3z"
				/>
		</g>
		<ellipse class="st1" cx="99.5" cy="100.2" rx="88.1" ry="88.7"/>
	</g>
	<g>
		<path class="st2" d="M98.8,118.9l-15.1-13.3l-43.3,37.2c1.5,1.5,3.7,2.4,6.1,2.4H151c2.4,0,4.5-0.9,6.1-2.4l-43.3-37.2L98.8,118.9
			z"/>
		<path class="st2" d="M157.3,59.9c-1.5-1.5-3.7-2.4-6.1-2.4H46.5c-2.4,0-4.5,0.9-6.1,2.4l58.4,50.3L157.3,59.9z"/>
		<polygon class="st2" points="37.8,65.1 37.8,138.1 80,102.1 		"/>
		<polygon class="st2" points="117.9,102.1 159.9,138.1 159.9,65.1 		"/>
	</g>
</g>
</svg>
