<?xml version="1.0" encoding="utf-8"?>
<!-- Generator: Adobe Illustrator 19.0.0, SVG Export Plug-In . SVG Version: 6.00 Build 0)  -->
<svg version="1.1" id="Layer_1" xmlns="http://www.w3.org/2000/svg" xmlns:xlink="http://www.w3.org/1999/xlink" x="0px" y="0px"
	 viewBox="0 0 200 200" style="enable-background:new 0 0 200 200;" xml:space="preserve">
<style type="text/css">
	.st0{fill:none;stroke:#151515;stroke-width:4;stroke-miterlimit:10;}
	.st1{fill:#151515;}
	.st2{fill:#EEEBE3;}
</style>
<g>
	<g>
		<g>
			<path class="st0" d="M100,198c-54,0-98-44-98-98C2,46,46,2,100,2c54,0,98,44,98,98C198,154,154,198,100,198z"/>
		</g>
		<circle class="st1" cx="100" cy="99.8" r="85.9"/>
	</g>
	<path class="st2" d="M86.3,156.3h21.9v-55.1h15.4l1.7-18.6h-17.1c0,0,0-7,0-10.5c0-4.4,0.8-6.1,5.1-6.1c3.4,0,12,0,12,0V46.8
		c0,0-12.7,0-15.2,0c-16.5,0-23.8,7.2-23.8,21.1c0,12,0,14.8,0,14.8H74.9v18.8h11.4C86.3,101.5,86.3,156.3,86.3,156.3z"/>
</g>
</svg>
