<?xml version="1.0" encoding="utf-8"?>
<!-- Generator: Adobe Illustrator 19.0.0, SVG Export Plug-In . SVG Version: 6.00 Build 0)  -->
<svg version="1.1" id="Layer_1" xmlns="http://www.w3.org/2000/svg" xmlns:xlink="http://www.w3.org/1999/xlink" x="0px" y="0px"
	 viewBox="0 0 200 200" style="enable-background:new 0 0 200 200;" xml:space="preserve">
<style type="text/css">
	.st0{fill:none;stroke:#151515;stroke-width:4.2194;stroke-miterlimit:10;}
	.st1{fill:#151515;}
	.st2{fill:#EEEBE3;}
</style>
<g id="XMLID_3_">
	<g>
		<g>
			<path class="st0" d="M100,198c-54,0-98-44-98-98C2,46,46,2,100,2c54,0,98,44,98,98C198,154,154,198,100,198z"/>
		</g>
		<circle class="st1" cx="100" cy="100" r="85.9"/>
	</g>
	<g id="XMLID_6_">
		<g id="XMLID_8_">
			<rect x="59.3" y="82.5" class="st2" width="18.8" height="60.5"/>
			<ellipse class="st2" cx="68.6" cy="63.5" rx="11" ry="11.2"/>
			<path id="XMLID_7_" class="st2" d="M108,111.2c0-8.4,4-13.5,11.4-13.5c7,0,10.1,4.9,10.1,13.5s0,31.9,0,31.9h18.6
				c0,0,0-22.2,0-38.4s-9.3-24.1-21.9-24.1c-12.9,0-18.1,9.9-18.1,9.9v-8.2H90.1v60.5H108C108,143,108,120.5,108,111.2z"/>
		</g>
	</g>
</g>
</svg>
