<?xml version="1.0" encoding="utf-8"?>
<!-- Generator: Adobe Illustrator 19.0.0, SVG Export Plug-In . SVG Version: 6.00 Build 0)  -->
<svg version="1.1" id="Layer_1" xmlns="http://www.w3.org/2000/svg" xmlns:xlink="http://www.w3.org/1999/xlink" x="0px" y="0px"
	 viewBox="0 0 200 200" style="enable-background:new 0 0 200 200;" xml:space="preserve">
<style type="text/css">
	.st0{fill:none;stroke:#151515;stroke-width:4.2194;stroke-miterlimit:10;}
	.st1{fill:#151515;}
	.st2{fill:#FFFFFF;}
</style>
<g id="XMLID_4_">
	<g id="XMLID_15_">
		<g id="XMLID_17_">
			<path class="st0" d="M100,198c-54,0-98-44-98-98C2,46,46,2,100,2c54,0,98,44,98,98C198,154,154,198,100,198z"/>
		</g>
		<circle id="XMLID_16_" class="st1" cx="100" cy="100" r="85.9"/>
	</g>
	<path id="XMLID_9_" class="st2" d="M144.5,125.3c0.2,1.5-0.2,2.7-1.3,3.8l-12.7,12.4c-0.6,0.6-1.3,1.3-2.3,1.7
		c-0.8,0.4-1.9,0.6-2.7,0.8c0,0-0.2,0-0.6,0c-0.2,0-0.6,0-1.3,0c-1.3,0-3.2-0.2-5.9-0.6c-2.7-0.4-5.9-1.5-9.9-3
		c-3.8-1.7-8.2-4-13.1-7.2c-4.9-3.2-10.1-7.6-15.6-13.3c-4.4-4.4-8-8.4-11-12.4c-3-4-5.3-7.6-7-11c-1.7-3.4-3.2-6.3-4-9.1
		c-0.8-2.7-1.5-5.1-1.9-7.2c-0.2-1.9-0.4-3.6-0.4-4.6c0-1.1,0-1.7,0-1.9c0.2-0.8,0.4-1.7,0.8-2.7c0.4-0.8,1.1-1.7,1.7-2.3L70,56.1
		c0.8-0.8,1.9-1.3,3-1.3c0.8,0,1.5,0.2,2.1,0.6c0.6,0.4,1.3,1.1,1.7,1.7l10.1,19.2c0.6,1.1,0.6,2.1,0.4,3.4c-0.2,1.3-0.8,2.1-1.7,3
		L81,87.3c0.4,0.4,0.4,0.6,0.2,0.8c0,0.2-0.2,0.4-0.2,0.6c0.2,1.3,0.8,2.7,1.7,4.4c0.8,1.5,1.9,3.4,3.6,5.5c1.5,2.1,3.8,4.6,6.8,7.6
		c2.7,3,5.3,5.1,7.6,6.8c2.1,1.7,4,2.7,5.5,3.6c1.5,0.8,2.5,1.3,3.4,1.3l1.3,0.2c0.2,0,0.4,0,0.6-0.2c0.2,0,0.4-0.2,0.6-0.4l5.5-5.5
		c1.1-1.1,2.5-1.5,4-1.5c1.1,0,1.9,0.2,2.5,0.6l0,0l18.1,10.8C143.5,123.2,144.3,124.1,144.5,125.3z"/>
</g>
</svg>
